<svg xmlns="http://www.w3.org/2000/svg" width="32" height="32" viewBox="0 0 32 32"><path fill-rule="evenodd" d="M 16 0 A 16 16 0 0 0 0 16 A 16 16 0 0 0 16 32 A 16 16 0 0 0 32 16 A 16 16 0 0 0 16 0 z M 15.996094 8.5019531 A 0.50005 0.50005 0 0 1 16.503906 9.0097656 L 16.503906 13.009766 A 0.50005 0.50005 0 1 1 15.503906 13.009766 L 15.503906 9.0097656 A 0.50005 0.50005 0 0 1 15.996094 8.5019531 z M 14.017578 9.8085938 A 0.50004997 0.50004997 0 0 1 14.1875 10.787109 C 11.366229 11.681609 9.6232093 14.491216 10.074219 17.416016 C 10.525194 20.340916 13.034436 22.496094 15.994141 22.496094 C 18.95385 22.499394 21.466427 20.351534 21.923828 17.427734 C 22.381228 14.503934 20.643483 11.691716 17.824219 10.791016 A 0.50035598 0.50035598 0 1 1 18.128906 9.8378906 C 21.410984 10.886491 23.444616 14.178131 22.912109 17.582031 C 22.379602 20.985931 19.437751 23.496094 15.992188 23.496094 C 12.546627 23.492294 9.6109641 20.973459 9.0859375 17.568359 C 8.5608713 14.163259 10.600352 10.875384 13.884766 9.8339844 A 0.50004997 0.50004997 0 0 1 14.017578 9.8105469 L 14.017578 9.8085938 z "/></svg>